{"title":"The Company You Keep 2012 DVDRip XviD AC3 5.1 titler","uid":8373504,"size":1515296834,"categoryP":"video","categoryS":"movies","magnet":"?xt=urn:btih:74982261365dea3f22c984631c7be7c1173a2c04&amp;dn=The+Company+You+Keep+2012+DVDRip+XviD+AC3+5.1+titler&amp;tr=udp%3A%2F%2Ftracker.openbittorrent.com%3A80&amp;tr=udp%3A%2F%2Fopen.demonii.com%3A1337&amp;tr=udp%3A%2F%2Ftracker.coppersurfer.tk%3A6969&amp;tr=udp%3A%2F%2Fexodus.desync.com%3A6969","seeders":1,"leechers":0,"uploader":"movieZ.freak","files":4,"time":1365984493,"description":"SOURCE: DVD9\n\n &lt;a href=&quot;\nhttp://www.imdb.com/title/tt1381404/&quot; rel=&quot;nofollow&quot; target=&quot;_NEW&quot;&gt;\nhttp://www.imdb.com/title/tt1381404/&lt;/a&gt;\n\n\n-SAMPLE: Yes\n\n-SUBTITLES: No\n\n-LANGUAGE: English\n\n\nDIRECTOR: Robert Redford\n\n\nCAST:\n------------\nRobert Redford, Shia LaBeouf, Julie Christie, Susan Sarandon, Nick Nolte, Chris Cooper, Terrence Howard, Stanley Tucci, Richard Jenkins, Anna Kendrick, Brendan Gleeson, Sam Elliott\n\nPLOT:\n--------\nThe story centers on recent widower and single father, Jim Grant, a former Weather Underground anti-Vietnam War militant wanted for a bank robbery and murder, who hid from the FBI for over thirty years posing as an Albany attorney. He becomes a fugitive when his true identity is exposed by Ben Shepard, an aggressive young reporter. Grant must find his ex-lover, Mimi, the one person who can clear his name, before the FBI catches him. Otherwise, he will lose everything, including his 11-year-old daughter Isabel. While Ben struggles with ethical issues as a\njournalist, Jim and his old friends from the Weather Underground must live with the consequences of their radical past.\n\nGeneral\n-------------\n\nFormat : AVI\nFormat/Info : Audio Video Interleave\nFile size : 1.37 GiB\nDuration : 1h 57mn\nOverall bit rate : 1 671 Kbps\nWriting library : VirtualDubMod build 2550/release\n\nVideo\n-------------\n\nFormat : MPEG-4 Visual\nFormat profile : Advanced Simple@L5\nFormat settings, BVOP : 1\nFormat settings, QPel : No\nFormat settings, GMC : No warppoints\nFormat settings, Matrix : Custom\nCodec ID : XVID\nCodec ID/Hint : XviD\nDuration : 1h 57mn\nBit rate : 1 216 Kbps\nWidth : 720 pixels\nHeight : 304 pixels\nDisplay aspect ratio : 2.35:1\nFrame rate : 25.000 fps\nColor space : YUV\nChroma subsampling : 4:2:0\nBit depth : 8 bits\nScan type : Progressive\nCompression mode : Lossy\nBits/(Pixel*Frame) : 0.222\nStream size : 1 019 MiB (73%)\nWriting library : XviD 64\n\nAudio\n-----------\n\nFormat : AC-3\nFormat/Info : Audio Coding 3\nMode extension : CM (complete main)\nFormat settings, Endianness : Big\nCodec ID : 2000\nDuration : 1h 57mn\nBit rate mode : Constant\nBit rate : 448 Kbps\nChannel(s) : 6 channels\nChannel positions : Front: L C R, Side: L R, LFE\nSampling rate : 48.0 KHz\nBit depth : 16 bits\nCompression mode : Lossy\nStream size : 376 MiB (27%)\nAlignment : Split accross interleaves\nInterleave, duration : 96 ms (2.40 video frames)\nInterleave, preload duration : 96 ms\nLanguage : English","torrent":{"xt":"urn:btih:74982261365dea3f22c984631c7be7c1173a2c04","amp;dn":"The+Company+You+Keep+2012+DVDRip+XviD+AC3+5.1+titler","amp;tr":["udp%3A%2F%2Ftracker.openbittorrent.com%3A80","udp%3A%2F%2Fopen.demonii.com%3A1337","udp%3A%2F%2Ftracker.coppersurfer.tk%3A6969","udp%3A%2F%2Fexodus.desync.com%3A6969"],"infoHash":"74982261365dea3f22c984631c7be7c1173a2c04","infoHashBuffer":{"type":"Buffer","data":[116,152,34,97,54,93,234,63,34,201,132,99,28,123,231,193,23,58,44,4]},"announce":[],"urlList":[]}}